# xmcd
#
# Track frame offsets:
# 150
# 25228
# 39086
# 62988
# 85873
# 105996
# 126600
# 143616
# 164227
# 187331
# 204201
# 218555
# 235953
# 256612
# 282521
# 304563
#
# Disc length: 4272 seconds
#
# Revision: 0
# Processed by: cddbd v1.4PL0 Copyright (c) Steve Scherf et al.
# Submitted via: Audion 3.0.0 (http://www.panic.com/audion/)
#
DISCID=e210ae10
DTITLE=Madona - Madona
DYEAR=1900
DGENRE=
TTITLE0=Dont'cry for me argentina
TTITLE1=You must love me
TTITLE2=Take a bow
TTITLE3=Secret
TTITLE4=One more chance
TTITLE5=You'll see
TTITLE6=La isla bonita
TTITLE7=Rain
TTITLE8=This used to be my playground
TTITLE9=Crazy for you
TTITLE10=like a virgin
TTITLE11=Material girl
TTITLE12=Bad girl
TTITLE13=Lake a prayer
TTITLE14=Vogue
TTITLE15=Another suitcase in another hall
EXTD=
EXTT0=
EXTT1=
EXTT2=
EXTT3=
EXTT4=
EXTT5=
EXTT6=
EXTT7=
EXTT8=
EXTT9=
EXTT10=
EXTT11=
EXTT12=
EXTT13=
EXTT14=
EXTT15=
PLAYORDER=
